{"title":"Stash.House.2012.VODRip.AC3-5.1.XviD-AXED","uid":7265606,"size":1475022288,"categoryP":"video","categoryS":"movies","magnet":"?xt=urn:btih:79c853410466942590355662b391fc3d82a64d5e&amp;dn=Stash.House.2012.VODRip.AC3-5.1.XviD-AXED&amp;tr=udp%3A%2F%2Ftracker.openbittorrent.com%3A80&amp;tr=udp%3A%2F%2Fopen.demonii.com%3A1337&amp;tr=udp%3A%2F%2Ftracker.coppersurfer.tk%3A6969&amp;tr=udp%3A%2F%2Fexodus.desync.com%3A6969","seeders":0,"leechers":1,"uploader":"maximersk","files":4,"time":1336874547,"description":"Stash.House.2012.VODRip.AC3-5.1.XviD-AXED\n\n\n\n &lt;a href=&quot;\nhttp://www.imdb.com/title/tt1919090/&quot; rel=&quot;nofollow&quot; target=&quot;_NEW&quot;&gt;\nhttp://www.imdb.com/title/tt1919090/&lt;/a&gt;\n\nPLOT INFO:\nDave and Emma have found the perfect house, until they discover a stash of heroine and end up imprisoned in it by violent thugs.\n\n\nMEDIAINFO:\nGeneral\nComplete name : Stash.House.2012.VODRiP.AC3-5.1.XviD-AXED.avi\nFormat : AVI\nFormat/Info : Audio Video Interleave\nFile size : 1.36 GiB\nDuration : 1h 39mn\nOverall bit rate : 1 959 Kbps\n\nVideo\nID : 0\nFormat : MPEG-4 Visual\nFormat profile : Advanced Simple@L5\nFormat settings, BVOP : 2\nFormat settings, QPel : No\nFormat settings, GMC : No warppoints\nFormat settings, Matrix : Default (H.263)\nMuxing mode : Packed bitstream\nCodec ID : XVID\nCodec ID/Hint : XviD\nDuration : 1h 39mn\nBit rate : 1 567 Kbps\nWidth : 720 pixels\nHeight : 400 pixels\nDisplay aspect ratio : 16:9\nFrame rate : 23.976 fps\nColor space : YUV\nChroma subsampling : 4:2:0\nBit depth : 8 bits\nScan type : Progressive\nCompression mode : Lossy\nBits/(Pixel*Frame) : 0.227\nStream size : 1.09 GiB (80%)\nWriting library : XviD 1.1.2 (UTC 2006-11-01)\n\nAudio\nID : 1\nFormat : AC-3\nFormat/Info : Audio Coding 3\nMode extension : CM (complete main)\nCodec ID : 2000\nDuration : 1h 39mn\nBit rate mode : Constant\nBit rate : 384 Kbps\nChannel(s) : 6 channels\nChannel positions : Front: L C R, Side: L R, LFE\nSampling rate : 48.0 KHz\nBit depth : 16 bits\nCompression mode : Lossy\nStream size : 273 MiB (20%)\nAlignment : Aligned on interleaves\nInterleave, duration : 64 ms (1.53 video frames)\nInterleave, preload duration : 192 ms\nTitle : stashhouse","torrent":{"xt":"urn:btih:79c853410466942590355662b391fc3d82a64d5e","amp;dn":"Stash.House.2012.VODRip.AC3-5.1.XviD-AXED","amp;tr":["udp%3A%2F%2Ftracker.openbittorrent.com%3A80","udp%3A%2F%2Fopen.demonii.com%3A1337","udp%3A%2F%2Ftracker.coppersurfer.tk%3A6969","udp%3A%2F%2Fexodus.desync.com%3A6969"],"infoHash":"79c853410466942590355662b391fc3d82a64d5e","infoHashBuffer":{"type":"Buffer","data":[121,200,83,65,4,102,148,37,144,53,86,98,179,145,252,61,130,166,77,94]},"announce":[],"urlList":[]}}